<?xml version="1.0" encoding="UTF-8" ?>
<!DOCTYPE svg PUBLIC "-//W3C//DTD SVG 1.1//EN" "http://www.w3.org/Graphics/SVG/1.1/DTD/svg11.dtd">
<svg width="256pt" height="256pt" viewBox="0 0 256 256" version="1.1" xmlns="http://www.w3.org/2000/svg">
<g id="#1e1e1fff">
<path fill="#1e1e1f" opacity="1.00" d=" M 110.16 0.00 L 145.15 0.00 C 175.08 4.01 203.41 18.83 223.61 41.30 C 241.07 60.31 252.20 84.72 256.00 110.18 L 256.00 145.18 C 252.00 174.90 237.36 203.05 215.13 223.21 C 195.92 240.97 171.14 252.43 145.25 256.00 L 110.84 256.00 C 81.37 252.04 53.43 237.61 33.31 215.69 C 15.29 196.40 3.58 171.42 0.00 145.28 L 0.00 110.47 C 3.73 84.43 15.31 59.52 33.32 40.29 C 53.28 18.49 80.97 4.28 110.16 0.00 M 125.57 39.62 C 117.01 48.95 112.10 61.40 111.79 74.04 C 111.12 75.00 110.46 75.97 109.79 76.94 C 125.23 95.15 140.73 113.32 156.19 131.52 C 157.95 130.16 159.74 128.83 161.58 127.58 C 173.63 128.57 185.86 124.71 195.57 117.61 C 206.73 109.48 214.53 96.82 216.55 83.14 C 218.87 69.05 214.93 54.12 206.16 42.89 C 196.51 30.28 180.92 22.42 165.02 22.40 C 150.20 22.12 135.49 28.65 125.57 39.62 M 4.30 157.01 C 13.52 160.63 22.73 164.29 31.95 167.94 C 34.64 181.90 45.55 193.88 59.21 197.84 C 69.67 201.05 81.44 199.50 90.73 193.75 C 100.27 187.97 107.15 177.97 108.97 166.95 C 112.10 164.48 115.34 162.15 118.53 159.74 C 106.34 145.39 94.13 131.07 81.95 116.71 C 80.78 118.42 79.58 120.12 78.36 121.80 C 67.78 119.62 56.41 121.92 47.64 128.26 C 33.20 122.53 18.73 116.87 4.32 111.09 C 4.23 126.40 4.28 141.70 4.30 157.01 Z" />
<path fill="#1e1e1f" opacity="1.00" d=" M 161.26 38.34 C 177.80 36.56 194.43 47.56 199.48 63.35 C 203.69 75.49 200.84 89.67 192.34 99.29 C 182.08 111.51 163.52 115.48 149.12 108.65 C 135.88 102.78 126.99 88.54 127.57 74.06 C 127.72 55.90 143.11 39.50 161.26 38.34 M 161.33 49.46 C 148.76 50.75 138.45 62.39 138.63 75.01 C 138.31 88.25 149.69 100.44 162.97 100.83 C 174.45 101.77 185.81 93.88 189.09 82.87 C 192.40 73.09 188.88 61.60 180.88 55.15 C 175.50 50.67 168.27 48.60 161.33 49.46 Z" />
<path fill="#1e1e1f" opacity="1.00" d=" M 55.43 131.22 C 61.57 128.54 68.40 126.97 75.10 128.14 C 84.65 129.45 93.41 135.36 98.28 143.66 C 103.96 153.04 104.33 165.37 99.22 175.07 C 93.64 186.12 81.30 193.37 68.90 192.59 C 55.91 192.26 44.27 183.08 39.72 171.09 C 47.67 174.02 55.47 177.34 63.39 180.35 C 68.61 182.27 74.56 181.89 79.55 179.49 C 86.93 176.10 91.93 168.17 91.72 160.05 C 91.79 151.94 86.66 144.11 79.27 140.83 C 71.36 137.52 63.29 134.63 55.43 131.22 Z" />
</g>
<g id="#ffffffff">
<path fill="#ffffff" opacity="1.00" d=" M 125.57 39.62 C 135.49 28.65 150.20 22.12 165.02 22.40 C 180.92 22.42 196.51 30.28 206.16 42.89 C 214.93 54.12 218.87 69.05 216.55 83.14 C 214.53 96.82 206.73 109.48 195.57 117.61 C 185.86 124.71 173.63 128.57 161.58 127.58 C 159.74 128.83 157.95 130.16 156.19 131.52 C 140.73 113.32 125.23 95.15 109.79 76.94 C 110.46 75.97 111.12 75.00 111.79 74.04 C 112.10 61.40 117.01 48.95 125.57 39.62 M 161.26 38.34 C 143.11 39.50 127.72 55.90 127.57 74.06 C 126.99 88.54 135.88 102.78 149.12 108.65 C 163.52 115.48 182.08 111.51 192.34 99.29 C 200.84 89.67 203.69 75.49 199.48 63.35 C 194.43 47.56 177.80 36.56 161.26 38.34 Z" />
<path fill="#ffffff" opacity="1.00" d=" M 161.33 49.46 C 168.27 48.60 175.50 50.67 180.88 55.15 C 188.88 61.60 192.40 73.09 189.09 82.87 C 185.81 93.88 174.45 101.77 162.97 100.83 C 149.69 100.44 138.31 88.25 138.63 75.01 C 138.45 62.39 148.76 50.75 161.33 49.46 Z" />
<path fill="#ffffff" opacity="1.00" d=" M 4.30 157.01 C 4.28 141.70 4.23 126.40 4.32 111.09 C 18.73 116.87 33.20 122.53 47.64 128.26 C 56.41 121.92 67.78 119.62 78.36 121.80 C 79.58 120.12 80.78 118.42 81.95 116.71 C 94.13 131.07 106.34 145.39 118.53 159.74 C 115.34 162.15 112.10 164.48 108.97 166.95 C 107.15 177.97 100.27 187.97 90.73 193.75 C 81.44 199.50 69.67 201.05 59.21 197.84 C 45.55 193.88 34.64 181.90 31.95 167.94 C 22.73 164.29 13.52 160.63 4.30 157.01 M 55.43 131.22 C 63.29 134.63 71.36 137.52 79.27 140.83 C 86.66 144.11 91.79 151.94 91.72 160.05 C 91.93 168.17 86.93 176.10 79.55 179.49 C 74.56 181.89 68.61 182.27 63.39 180.35 C 55.47 177.34 47.67 174.02 39.72 171.09 C 44.27 183.08 55.91 192.26 68.90 192.59 C 81.30 193.37 93.64 186.12 99.22 175.07 C 104.33 165.37 103.96 153.04 98.28 143.66 C 93.41 135.36 84.65 129.45 75.10 128.14 C 68.40 126.97 61.57 128.54 55.43 131.22 Z" />
</g>
</svg>
